<?xml version="1.0" encoding="UTF-8"?>
<svg xmlns="http://www.w3.org/2000/svg" xmlns:xlink="http://www.w3.org/1999/xlink" width="500px" height="444px" viewBox="0 0 499 444" version="1.1">
<defs>
<filter id="alpha" filterUnits="objectBoundingBox" x="0%" y="0%" width="100%" height="100%">
  <feColorMatrix type="matrix" in="SourceGraphic" values="0 0 0 0 1 0 0 0 0 1 0 0 0 0 1 0 0 0 1 0"/>
</filter>
<mask id="mask0">
  <g filter="url(#alpha)">
<rect x="0" y="0" width="499" height="444" style="fill:rgb(0%,0%,0%);fill-opacity:0.301961;stroke:none;"/>
  </g>
</mask>
<clipPath id="clip1">
  <rect x="0" y="0" width="499" height="444"/>
</clipPath>
<g id="surface5" clip-path="url(#clip1)">
<path style=" stroke:none;fill-rule:nonzero;fill:rgb(42.352941%,38.823529%,100%);fill-opacity:1;" d="M 276.769531 69.984375 C 276.769531 81.925781 267.097656 91.609375 255.167969 91.609375 C 243.238281 91.609375 233.566406 81.925781 233.566406 69.984375 C 233.566406 58.042969 243.238281 48.359375 255.167969 48.359375 C 267.097656 48.359375 276.769531 58.042969 276.769531 69.984375 Z M 276.769531 69.984375 "/>
</g>
</defs>
<g id="surface1">
<path style=" stroke:none;fill-rule:nonzero;fill:rgb(24.705882%,23.921569%,33.72549%);fill-opacity:1;" d="M 486.832031 185.78125 C 478.261719 255.207031 433.488281 316.753906 376.171875 356.769531 C 371.519531 360.023438 366.753906 363.140625 361.871094 366.128906 C 361.261719 366.5 360.648438 366.875 360.035156 367.246094 C 325.976562 387.699219 286.957031 400.804688 247.757812 396.71875 C 215.910156 393.402344 184.636719 376.441406 165.972656 351.105469 C 165.621094 350.628906 165.269531 350.140625 164.929688 349.65625 C 157.328125 339.101562 152.171875 326.980469 149.835938 314.179688 C 146.480469 295.230469 149.089844 274.277344 138.660156 258.109375 C 125.140625 237.136719 96.179688 233.71875 71.257812 234.503906 C 47.964844 235.234375 24.707031 237.757812 1.441406 239.066406 C 0.964844 239.097656 0.484375 239.117188 0 239.148438 L 0 16.355469 C 0.0117188 7.328125 7.320312 0.0117188 16.339844 0 L 117.671875 0 C 122.574219 0.640625 126.046875 10.488281 130.933594 10.8125 C 133.050781 10.957031 135.167969 11.070312 137.277344 11.15625 C 148.390625 11.617188 159.484375 11.425781 170.566406 10.8125 C 177.039062 10.457031 184.953125 0.589844 191.421875 0 L 378.535156 0 C 379.929688 0.460938 381.3125 0.945312 382.695312 1.441406 C 388.652344 3.589844 394.472656 6.101562 400.121094 8.964844 C 462.449219 40.601562 495.398438 116.355469 486.832031 185.78125 Z M 486.832031 185.78125 "/>
<path style=" stroke:none;fill-rule:nonzero;fill:rgb(42.352941%,38.823529%,100%);fill-opacity:1;" d="M 408.554688 93.082031 C 379.542969 120.109375 341.113281 137.453125 301.640625 141.613281 C 297.765625 142.023438 293.882812 142.304688 289.988281 142.453125 C 289.125 142.492188 288.261719 142.511719 287.390625 142.535156 C 285.976562 142.570312 284.558594 142.585938 283.148438 142.585938 C 281.457031 142.585938 279.765625 142.558594 278.070312 142.511719 C 268.277344 142.226562 258.519531 141.160156 248.894531 139.320312 C 248.542969 139.246094 248.195312 139.183594 247.84375 139.109375 C 246.324219 138.816406 244.808594 138.496094 243.300781 138.160156 C 240.40625 137.515625 237.527344 136.804688 234.660156 136.027344 C 233.730469 135.773438 232.800781 135.515625 231.871094 135.238281 C 230.539062 134.859375 229.214844 134.453125 227.890625 134.042969 C 227.394531 133.882812 226.898438 133.734375 226.402344 133.566406 C 225.898438 133.410156 225.390625 133.242188 224.886719 133.070312 C 221.8125 132.0625 218.765625 130.964844 215.742188 129.785156 C 198.535156 123.128906 182.421875 113.917969 167.953125 102.457031 C 165.953125 100.867188 163.921875 99.195312 161.960938 97.570312 C 151.433594 88.878906 140.546875 79.890625 127.277344 77.929688 C 112.949219 75.820312 99.179688 82.347656 85.875 88.664062 C 81.359375 90.804688 76.691406 93.015625 72.078125 94.867188 C 49.546875 103.753906 24.714844 104.941406 1.441406 98.25 C 0.957031 98.121094 0.476562 97.976562 0 97.832031 L 0 96.324219 C 0.476562 96.46875 0.957031 96.613281 1.441406 96.75 C 24.519531 103.476562 49.175781 102.34375 71.546875 93.527344 C 76.117188 91.699219 80.769531 89.492188 85.261719 87.359375 C 98.761719 80.949219 112.726562 74.328125 127.484375 76.503906 C 141.152344 78.523438 152.199219 87.640625 162.878906 96.460938 C 164.835938 98.078125 166.859375 99.75 168.847656 101.335938 C 183.21875 112.71875 199.226562 121.867188 216.328125 128.472656 L 216.335938 128.472656 C 219.230469 129.597656 222.160156 130.65625 225.105469 131.636719 C 225.527344 131.773438 225.953125 131.910156 226.378906 132.054688 C 226.855469 132.207031 227.335938 132.355469 227.8125 132.507812 C 229.027344 132.898438 230.25 133.265625 231.46875 133.617188 C 232.664062 133.976562 233.867188 134.320312 235.078125 134.640625 L 235.085938 134.640625 C 238.179688 135.484375 241.296875 136.246094 244.429688 136.925781 C 245.847656 137.242188 247.269531 137.53125 248.699219 137.804688 C 249.011719 137.871094 249.328125 137.929688 249.644531 137.984375 C 258.878906 139.730469 268.234375 140.757812 277.625 141.054688 L 277.632812 141.054688 C 280.894531 141.15625 284.152344 141.167969 287.402344 141.09375 C 288.253906 141.070312 289.097656 141.042969 289.9375 141.011719 C 293.617188 140.867188 297.292969 140.609375 300.960938 140.234375 L 300.96875 140.234375 C 340.320312 136.207031 378.65625 118.964844 407.574219 92.023438 C 407.867188 91.753906 408.320312 91.773438 408.589844 92.0625 C 408.859375 92.355469 408.84375 92.808594 408.554688 93.082031 Z M 408.554688 93.082031 "/>
<path style=" stroke:none;fill-rule:nonzero;fill:rgb(100%,39.607843%,51.764706%);fill-opacity:1;" d="M 0.222656 65.546875 C 0.179688 65.730469 0.101562 65.90625 0 66.066406 L 0 64.054688 C 0.261719 64.507812 0.34375 65.039062 0.222656 65.546875 Z M 0.222656 65.546875 "/>
<path style=" stroke:none;fill-rule:nonzero;fill:rgb(90.196078%,90.196078%,90.196078%);fill-opacity:1;" d="M 4.539062 70.65625 C 3.636719 70.554688 2.792969 71.523438 2.648438 72.816406 C 2.503906 74.113281 3.117188 75.242188 4.015625 75.34375 C 4.914062 75.445312 5.761719 74.476562 5.90625 73.183594 C 6.050781 71.886719 5.4375 70.757812 4.539062 70.65625 Z M 4.539062 70.65625 "/>
<path style=" stroke:none;fill-rule:nonzero;fill:rgb(24.705882%,23.921569%,33.72549%);fill-opacity:1;" d="M 6.542969 85.941406 C 5.640625 85.84375 4.796875 86.808594 4.652344 88.105469 C 4.507812 89.398438 5.121094 90.527344 6.019531 90.628906 C 6.917969 90.730469 7.765625 89.761719 7.910156 88.46875 C 8.054688 87.175781 7.441406 86.042969 6.542969 85.941406 Z M 6.542969 85.941406 "/>
<path style=" stroke:none;fill-rule:nonzero;fill:rgb(100%,100%,100%);fill-opacity:1;" d="M 360.625 206.9375 C 358.628906 206.433594 356.726562 207.148438 356.375 208.539062 C 356.023438 209.925781 357.355469 211.464844 359.351562 211.96875 C 361.347656 212.476562 363.25 211.761719 363.601562 210.371094 C 363.953125 208.980469 362.621094 207.445312 360.625 206.9375 Z M 360.625 206.9375 "/>
<path style=" stroke:none;fill-rule:nonzero;fill:rgb(24.705882%,23.921569%,33.72549%);fill-opacity:1;" d="M 336.253906 206.78125 C 334.257812 206.273438 332.355469 206.992188 332.003906 208.378906 C 331.652344 209.769531 332.984375 211.308594 334.980469 211.8125 C 336.976562 212.320312 338.878906 211.601562 339.230469 210.214844 C 339.582031 208.824219 338.25 207.289062 336.253906 206.78125 Z M 336.253906 206.78125 "/>
<path style=" stroke:none;fill-rule:nonzero;fill:rgb(100%,39.607843%,51.764706%);fill-opacity:1;" d="M 365.199219 227.175781 C 363.203125 226.671875 361.300781 227.386719 360.949219 228.777344 C 360.59375 230.164062 361.929688 231.703125 363.921875 232.207031 C 365.917969 232.714844 367.820312 232 368.171875 230.609375 C 368.527344 229.21875 367.191406 227.683594 365.199219 227.175781 Z M 365.199219 227.175781 "/>
<path style=" stroke:none;fill-rule:nonzero;fill:rgb(90.196078%,90.196078%,90.196078%);fill-opacity:1;" d="M 372.488281 235.714844 C 371.589844 235.613281 370.742188 236.582031 370.597656 237.875 C 370.453125 239.171875 371.066406 240.300781 371.964844 240.402344 C 372.863281 240.503906 373.710938 239.535156 373.855469 238.242188 C 374 236.945312 373.386719 235.816406 372.488281 235.714844 Z M 372.488281 235.714844 "/>
<path style=" stroke:none;fill-rule:nonzero;fill:rgb(24.705882%,23.921569%,33.72549%);fill-opacity:1;" d="M 374.492188 251 C 373.59375 250.902344 372.746094 251.867188 372.601562 253.164062 C 372.457031 254.457031 373.070312 255.585938 373.96875 255.6875 C 374.867188 255.789062 375.714844 254.820312 375.859375 253.527344 C 376.003906 252.234375 375.390625 251.101562 374.492188 251 Z M 374.492188 251 "/>
<path style=" stroke:none;fill-rule:nonzero;fill:rgb(90.196078%,90.196078%,90.196078%);fill-opacity:1;" d="M 349.578125 221.871094 C 348.675781 221.769531 347.832031 222.738281 347.6875 224.03125 C 347.542969 225.324219 348.15625 226.457031 349.054688 226.558594 C 349.953125 226.65625 350.800781 225.691406 350.945312 224.394531 C 351.089844 223.101562 350.476562 221.972656 349.578125 221.871094 Z M 349.578125 221.871094 "/>
<path style=" stroke:none;fill-rule:nonzero;fill:rgb(100%,39.607843%,51.764706%);fill-opacity:1;" d="M 361.839844 217.257812 C 360.941406 217.15625 360.09375 218.125 359.949219 219.417969 C 359.804688 220.714844 360.417969 221.84375 361.316406 221.945312 C 362.21875 222.046875 363.0625 221.078125 363.207031 219.785156 C 363.351562 218.488281 362.742188 217.359375 361.839844 217.257812 Z M 361.839844 217.257812 "/>
<path style=" stroke:none;fill-rule:nonzero;fill:rgb(24.705882%,23.921569%,33.72549%);fill-opacity:1;" d="M 346.734375 204.796875 C 345.832031 204.699219 344.988281 205.664062 344.84375 206.960938 C 344.699219 208.253906 345.308594 209.386719 346.210938 209.484375 C 347.109375 209.585938 347.953125 208.617188 348.097656 207.324219 C 348.242188 206.03125 347.632812 204.898438 346.734375 204.796875 Z M 346.734375 204.796875 "/>
<path style=" stroke:none;fill-rule:nonzero;fill:rgb(100%,100%,100%);fill-opacity:1;" d="M 33 36.113281 C 31.003906 35.605469 29.101562 36.324219 28.746094 37.714844 C 28.394531 39.101562 29.730469 40.640625 31.722656 41.144531 C 33.71875 41.652344 35.621094 40.9375 35.972656 39.546875 C 36.328125 38.15625 34.992188 36.621094 33 36.113281 Z M 33 36.113281 "/>
<path style=" stroke:none;fill-rule:nonzero;fill:rgb(24.705882%,23.921569%,33.72549%);fill-opacity:1;" d="M 8.628906 35.957031 C 6.632812 35.449219 4.730469 36.167969 4.378906 37.554688 C 4.027344 38.945312 5.359375 40.480469 7.355469 40.988281 C 9.351562 41.496094 11.253906 40.777344 11.605469 39.390625 C 11.957031 38 10.625 36.460938 8.628906 35.957031 Z M 8.628906 35.957031 "/>
<path style=" stroke:none;fill-rule:nonzero;fill:rgb(100%,39.607843%,51.764706%);fill-opacity:1;" d="M 37.570312 56.351562 C 35.574219 55.84375 33.671875 56.5625 33.320312 57.953125 C 32.96875 59.339844 34.300781 60.878906 36.296875 61.382812 C 38.292969 61.890625 40.195312 61.175781 40.546875 59.785156 C 40.898438 58.394531 39.566406 56.859375 37.570312 56.351562 Z M 37.570312 56.351562 "/>
<path style=" stroke:none;fill-rule:nonzero;fill:rgb(90.196078%,90.196078%,90.196078%);fill-opacity:1;" d="M 44.859375 64.890625 C 43.960938 64.789062 43.117188 65.757812 42.972656 67.050781 C 42.828125 68.347656 43.4375 69.476562 44.339844 69.578125 C 45.238281 69.679688 46.082031 68.710938 46.226562 67.414062 C 46.371094 66.121094 45.761719 64.992188 44.859375 64.890625 Z M 44.859375 64.890625 "/>
<path style=" stroke:none;fill-rule:nonzero;fill:rgb(24.705882%,23.921569%,33.72549%);fill-opacity:1;" d="M 46.863281 80.175781 C 45.964844 80.074219 45.121094 81.042969 44.976562 82.335938 C 44.832031 83.632812 45.441406 84.761719 46.34375 84.863281 C 47.242188 84.964844 48.085938 83.996094 48.230469 82.703125 C 48.375 81.40625 47.765625 80.277344 46.863281 80.175781 Z M 46.863281 80.175781 "/>
<path style=" stroke:none;fill-rule:nonzero;fill:rgb(90.196078%,90.196078%,90.196078%);fill-opacity:1;" d="M 21.949219 51.046875 C 21.050781 50.945312 20.207031 51.914062 20.0625 53.207031 C 19.917969 54.5 20.527344 55.632812 21.425781 55.734375 C 22.328125 55.832031 23.171875 54.867188 23.316406 53.570312 C 23.460938 52.277344 22.851562 51.144531 21.949219 51.046875 Z M 21.949219 51.046875 "/>
<path style=" stroke:none;fill-rule:nonzero;fill:rgb(100%,39.607843%,51.764706%);fill-opacity:1;" d="M 34.214844 46.433594 C 33.316406 46.332031 32.46875 47.300781 32.324219 48.59375 C 32.179688 49.890625 32.792969 51.019531 33.691406 51.121094 C 34.589844 51.222656 35.4375 50.253906 35.582031 48.960938 C 35.726562 47.664062 35.113281 46.535156 34.214844 46.433594 Z M 34.214844 46.433594 "/>
<path style=" stroke:none;fill-rule:nonzero;fill:rgb(24.705882%,23.921569%,33.72549%);fill-opacity:1;" d="M 19.105469 33.972656 C 18.207031 33.875 17.359375 34.839844 17.214844 36.136719 C 17.070312 37.429688 17.683594 38.558594 18.582031 38.660156 C 19.484375 38.761719 20.328125 37.792969 20.472656 36.5 C 20.617188 35.207031 20.003906 34.074219 19.105469 33.972656 Z M 19.105469 33.972656 "/>
<path style=" stroke:none;fill-rule:nonzero;fill:rgb(100%,100%,100%);fill-opacity:1;" d="M 116.917969 139.898438 C 116.917969 141.492188 115.628906 142.78125 114.039062 142.78125 C 112.445312 142.78125 111.15625 141.492188 111.15625 139.898438 C 111.15625 138.308594 112.445312 137.015625 114.039062 137.015625 C 115.628906 137.015625 116.917969 138.308594 116.917969 139.898438 Z M 116.917969 139.898438 "/>
<path style=" stroke:none;fill-rule:nonzero;fill:rgb(100%,100%,100%);fill-opacity:1;" d="M 44.910156 168.730469 C 44.910156 169.527344 44.265625 170.171875 43.472656 170.171875 C 42.675781 170.171875 42.03125 169.527344 42.03125 168.730469 C 42.03125 167.933594 42.675781 167.289062 43.472656 167.289062 C 44.265625 167.289062 44.910156 167.933594 44.910156 168.730469 Z M 44.910156 168.730469 "/>
<path style=" stroke:none;fill-rule:nonzero;fill:rgb(100%,100%,100%);fill-opacity:1;" d="M 330.773438 276.128906 C 330.773438 276.921875 330.128906 277.570312 329.335938 277.570312 C 328.539062 277.570312 327.894531 276.921875 327.894531 276.128906 C 327.894531 275.332031 328.539062 274.6875 329.335938 274.6875 C 330.128906 274.6875 330.773438 275.332031 330.773438 276.128906 Z M 330.773438 276.128906 "/>
<path style=" stroke:none;fill-rule:nonzero;fill:rgb(100%,100%,100%);fill-opacity:1;" d="M 145 209.816406 C 145 210.613281 144.355469 211.257812 143.558594 211.257812 C 142.765625 211.257812 142.121094 210.613281 142.121094 209.816406 C 142.121094 209.019531 142.765625 208.375 143.558594 208.375 C 144.355469 208.375 145 209.019531 145 209.816406 Z M 145 209.816406 "/>
<path style=" stroke:none;fill-rule:nonzero;fill:rgb(100%,100%,100%);fill-opacity:1;" d="M 170.921875 59.171875 C 170.921875 59.96875 170.277344 60.613281 169.480469 60.613281 C 168.6875 60.613281 168.042969 59.96875 168.042969 59.171875 C 168.042969 58.375 168.6875 57.730469 169.480469 57.730469 C 170.277344 57.730469 170.921875 58.375 170.921875 59.171875 Z M 170.921875 59.171875 "/>
<path style=" stroke:none;fill-rule:nonzero;fill:rgb(100%,100%,100%);fill-opacity:1;" d="M 406.382812 114.671875 C 406.382812 115.46875 405.734375 116.113281 404.941406 116.113281 C 404.144531 116.113281 403.5 115.46875 403.5 114.671875 C 403.5 113.875 404.144531 113.230469 404.941406 113.230469 C 405.734375 113.230469 406.382812 113.875 406.382812 114.671875 Z M 406.382812 114.671875 "/>
<path style=" stroke:none;fill-rule:nonzero;fill:rgb(100%,100%,100%);fill-opacity:1;" d="M 71.554688 39.710938 C 71.554688 40.507812 70.910156 41.152344 70.113281 41.152344 C 69.320312 41.152344 68.675781 40.507812 68.675781 39.710938 C 68.675781 38.914062 69.320312 38.269531 70.113281 38.269531 C 70.910156 38.269531 71.554688 38.914062 71.554688 39.710938 Z M 71.554688 39.710938 "/>
<path style=" stroke:none;fill-rule:nonzero;fill:rgb(100%,100%,100%);fill-opacity:1;" d="M 335.09375 31.0625 C 335.09375 32.65625 333.804688 33.945312 332.214844 33.945312 C 330.625 33.945312 329.335938 32.65625 329.335938 31.0625 C 329.335938 29.46875 330.625 28.179688 332.214844 28.179688 C 333.804688 28.179688 335.09375 29.46875 335.09375 31.0625 Z M 335.09375 31.0625 "/>
<path style=" stroke:none;fill-rule:nonzero;fill:rgb(90.196078%,90.196078%,90.196078%);fill-opacity:1;" d="M 461.101562 414.160156 L 459.664062 414.160156 C 459.664062 405.84375 451.878906 397.703125 436.519531 389.96875 C 421.492188 382.402344 399.949219 375.597656 372.5 369.753906 C 368.4375 368.886719 364.285156 368.050781 360.035156 367.246094 C 338.058594 363.0625 313.644531 359.640625 287.492188 357.039062 C 282.082031 356.496094 276.597656 355.996094 271.035156 355.53125 C 269.238281 355.371094 267.421875 355.230469 265.601562 355.078125 C 260.539062 354.679688 255.421875 354.3125 250.257812 353.96875 C 223.28125 352.179688 194.960938 351.207031 165.972656 351.105469 C 164.265625 351.089844 162.554688 351.089844 160.839844 351.089844 C 123.085938 351.089844 114.5625 354.660156 114.058594 357.65625 C 112.769531 365.242188 156.433594 380.46875 198.65625 395.210938 C 245.394531 411.515625 293.429688 428.28125 309.789062 442.558594 C 310.34375 443.042969 310.863281 443.523438 311.347656 444 L 309.367188 444 C 308.839844 443.523438 308.269531 443.042969 307.667969 442.558594 C 290.390625 428.75 241.9375 411.839844 198.179688 396.566406 C 144.21875 377.738281 111.21875 365.773438 112.632812 357.414062 C 113.242188 353.792969 119.277344 349.648438 160.839844 349.648438 C 162.199219 349.648438 163.566406 349.648438 164.929688 349.65625 C 193.910156 349.738281 222.230469 350.6875 249.234375 352.460938 C 254.511719 352.800781 259.738281 353.175781 264.910156 353.585938 C 266.832031 353.738281 268.746094 353.886719 270.65625 354.054688 C 276.359375 354.53125 281.988281 355.042969 287.539062 355.597656 C 314.382812 358.261719 339.421875 361.796875 361.871094 366.128906 C 365.585938 366.847656 369.230469 367.585938 372.800781 368.347656 C 429.746094 380.46875 461.101562 396.738281 461.101562 414.160156 Z M 461.101562 414.160156 "/>
<path style=" stroke:none;fill-rule:nonzero;fill:rgb(90.196078%,90.196078%,90.196078%);fill-opacity:1;" d="M 438.785156 410.683594 L 437.34375 410.683594 C 437.34375 404.53125 412.222656 397.9375 374.824219 397.9375 C 337.429688 397.9375 312.304688 404.53125 312.304688 410.683594 L 310.867188 410.683594 C 310.867188 401.804688 343.386719 396.496094 374.824219 396.496094 C 406.265625 396.496094 438.785156 401.804688 438.785156 410.683594 Z M 438.785156 410.683594 "/>
<path style=" stroke:none;fill-rule:nonzero;fill:rgb(90.196078%,90.196078%,90.196078%);fill-opacity:1;" d="M 413.65625 414.878906 L 412.214844 414.878906 C 412.214844 411.402344 396.945312 407.527344 375.035156 407.527344 C 353.121094 407.527344 337.851562 411.402344 337.851562 414.878906 L 336.414062 414.878906 C 336.414062 409.167969 356.3125 406.085938 375.035156 406.085938 C 393.757812 406.085938 413.65625 409.167969 413.65625 414.878906 Z M 413.65625 414.878906 "/>
<path style=" stroke:none;fill-rule:nonzero;fill:rgb(94.901961%,94.901961%,94.901961%);fill-opacity:1;" d="M 288.292969 67.820312 C 288.292969 83.746094 275.394531 96.652344 259.488281 96.652344 C 243.582031 96.652344 230.6875 83.746094 230.6875 67.820312 C 230.6875 51.898438 243.582031 38.992188 259.488281 38.992188 C 275.394531 38.992188 288.292969 51.898438 288.292969 67.820312 Z M 288.292969 67.820312 "/>
<path style=" stroke:none;fill-rule:nonzero;fill:rgb(94.901961%,94.901961%,94.901961%);fill-opacity:1;" d="M 283.972656 69.984375 C 283.972656 85.90625 271.074219 98.816406 255.167969 98.816406 C 239.261719 98.816406 226.367188 85.90625 226.367188 69.984375 C 226.367188 54.0625 239.261719 41.152344 255.167969 41.152344 C 271.074219 41.152344 283.972656 54.0625 283.972656 69.984375 Z M 283.972656 69.984375 "/>
<path style=" stroke:none;fill-rule:nonzero;fill:rgb(94.901961%,94.901961%,94.901961%);fill-opacity:1;" d="M 286.851562 385.644531 L 259.855469 385.644531 L 259.855469 385.304688 C 259.855469 379.496094 264.558594 374.785156 270.363281 374.785156 L 275.292969 371.039062 L 284.496094 374.785156 L 286.851562 374.785156 Z M 286.851562 385.644531 "/>
<path style=" stroke:none;fill-rule:nonzero;fill:rgb(94.901961%,94.901961%,94.901961%);fill-opacity:1;" d="M 274.285156 371.050781 L 251.21875 385.09375 L 251.039062 384.800781 C 248.027344 379.839844 249.601562 373.367188 254.558594 370.347656 L 256.828125 364.582031 L 266.632812 362.996094 L 268.644531 361.773438 Z M 274.285156 371.050781 "/>
<path style=" stroke:none;fill-rule:nonzero;fill:rgb(94.901961%,94.901961%,94.901961%);fill-opacity:1;" d="M 290.140625 294.484375 C 290.019531 295.351562 289.839844 298.292969 289.628906 302.574219 C 288.617188 323.332031 286.851562 375.59375 286.851562 375.59375 L 275.855469 372.171875 C 275.855469 372.171875 262.78125 332.6875 264.941406 311.0625 L 263.382812 303.539062 L 260.71875 290.679688 L 260.71875 290.671875 L 252.605469 251.511719 C 252.605469 251.511719 250.828125 262.121094 250.683594 264.609375 C 250.539062 267.097656 249.097656 267.816406 248.378906 267.816406 C 244.769531 267.816406 245.878906 267.175781 246.40625 270.742188 C 246.789062 273.308594 243.664062 288.019531 241.875 296.0625 C 241.183594 299.191406 240.695312 301.3125 240.695312 301.3125 L 243.75 307.898438 L 269.058594 362.535156 L 259.488281 367.667969 L 221.3125 311.027344 L 217.546875 305.441406 L 216.738281 299.175781 L 210.386719 249.898438 C 210.386719 249.898438 208.410156 244.328125 210.386719 244.183594 C 212.375 244.03125 213.5 244.65625 212.9375 242.546875 C 212.375 240.425781 223.898438 205.109375 223.898438 205.109375 L 283.660156 218.082031 C 283.660156 218.082031 289.550781 229.800781 287.261719 235.382812 C 284.964844 240.960938 289.140625 284.164062 286.757812 286.082031 C 284.382812 288 282.847656 286.464844 286.132812 289.757812 C 286.632812 290.28125 287.226562 290.710938 287.882812 291.027344 C 289.910156 291.949219 290.71875 290.449219 290.140625 294.484375 Z M 290.140625 294.484375 "/>
<path style=" stroke:none;fill-rule:nonzero;fill:rgb(62.745098%,38.039216%,41.568627%);fill-opacity:1;" d="M 271.582031 71.328125 C 271.582031 80.507812 264.148438 87.945312 254.980469 87.945312 C 245.8125 87.945312 238.378906 80.507812 238.378906 71.328125 C 238.378906 62.148438 245.8125 54.710938 254.980469 54.710938 C 264.148438 54.710938 271.582031 62.148438 271.582031 71.328125 Z M 271.582031 71.328125 "/>
<path style=" stroke:none;fill-rule:nonzero;fill:rgb(24.705882%,23.921569%,33.72549%);fill-opacity:1;" d="M 267.917969 85.640625 L 261.335938 86.902344 C 261.335938 86.902344 267.457031 77.011719 267.097656 72.484375 C 266.738281 67.960938 261.8125 66.335938 261.8125 66.335938 C 261.8125 66.335938 259.082031 66.929688 256.210938 67.261719 C 255.867188 66.289062 255.421875 65.359375 254.878906 64.484375 C 254.773438 65.613281 254.273438 66.671875 253.46875 67.46875 C 252.414062 67.558594 251.355469 67.4375 250.347656 67.109375 C 249.210938 66.589844 249.234375 65.6875 249.609375 64.847656 C 245.898438 65.152344 242.28125 66.148438 238.9375 67.78125 C 238.769531 65.566406 238.855469 63.34375 239.1875 61.148438 C 239.347656 61.105469 239.503906 61.054688 239.664062 61.003906 C 240.644531 60.691406 241.589844 60.28125 242.484375 59.773438 C 241.488281 59.640625 240.558594 59.199219 239.820312 58.515625 C 240.425781 56.746094 241.390625 55.207031 242.910156 54.460938 C 245.878906 53.007812 249.328125 52.914062 252.367188 54.207031 C 252.367188 54.207031 248.84375 51.632812 250.140625 50.582031 C 250.226562 50.667969 250.3125 50.746094 250.40625 50.828125 C 250.53125 50.925781 250.667969 51.035156 250.796875 51.136719 C 251.59375 51.785156 252.789062 50.871094 252.949219 49.890625 C 252.964844 49.765625 252.988281 49.644531 253.019531 49.523438 C 253.042969 49.421875 253.070312 49.320312 253.101562 49.226562 C 253.125 49.144531 253.152344 49.0625 253.1875 48.980469 C 255.585938 48.40625 262.835938 50.746094 265.621094 55.90625 C 265.621094 55.90625 285.097656 65.277344 267.917969 85.640625 Z M 267.917969 85.640625 "/>
<path style=" stroke:none;fill-rule:nonzero;fill:rgb(42.352941%,38.823529%,100%);fill-opacity:1;" d="M 261.90625 233.804688 C 261.40625 230.351562 263.742188 227.128906 267.175781 226.535156 C 267.511719 226.484375 267.851562 226.457031 268.195312 226.460938 L 285.550781 186.109375 L 297.460938 195.058594 L 274.277344 233.285156 C 274.019531 236.191406 271.84375 238.558594 268.972656 239.054688 C 265.625 239.597656 262.472656 237.320312 261.929688 233.972656 C 261.921875 233.914062 261.914062 233.859375 261.90625 233.804688 Z M 261.90625 233.804688 "/>
<path style=" stroke:none;fill-rule:nonzero;fill:rgb(42.352941%,38.823529%,100%);fill-opacity:1;" d="M 213.277344 237.09375 C 215.707031 234.59375 215.707031 230.609375 213.273438 228.113281 C 213.035156 227.871094 212.773438 227.652344 212.496094 227.453125 L 222.109375 184.589844 L 207.222656 184.832031 L 203.570312 229.402344 C 202.070312 231.90625 202.445312 235.101562 204.480469 237.191406 C 206.871094 239.597656 210.757812 239.605469 213.160156 237.214844 C 213.199219 237.171875 213.238281 237.132812 213.277344 237.09375 Z M 213.277344 237.09375 "/>
<path style=" stroke:none;fill-rule:nonzero;fill:rgb(94.901961%,94.901961%,94.901961%);fill-opacity:1;" d="M 309.222656 165.335938 C 307.0625 168.21875 304.183594 164.96875 307.0625 169.121094 C 309.042969 171.972656 297.695312 198.730469 290.429688 215.121094 C 287.148438 222.539062 284.691406 227.835938 284.691406 227.835938 L 272.441406 220.734375 L 271.011719 219.90625 C 271.011719 219.90625 282.242188 191.609375 285.859375 181.4375 C 286.457031 179.75 286.851562 178.5625 286.945312 178.085938 C 287.621094 174.707031 287.707031 171.808594 286.945312 170.734375 C 286.765625 170.335938 286.609375 169.921875 286.484375 169.503906 C 285.035156 165.257812 280.628906 150.921875 276.503906 137.363281 C 275.300781 133.382812 274.113281 129.476562 273.035156 125.910156 C 270.261719 116.75 268.179688 109.835938 268.179688 109.835938 L 284.742188 110.558594 C 284.742188 110.558594 285.015625 111.019531 285.496094 111.855469 C 286.648438 113.84375 289.011719 117.945312 291.746094 122.875 C 293.722656 126.421875 295.894531 130.40625 297.949219 134.328125 C 303.175781 144.304688 307.675781 153.910156 306.34375 155.246094 C 303.464844 158.128906 300.519531 156.492188 304.148438 160.191406 C 307.785156 163.894531 311.382812 162.453125 309.222656 165.335938 Z M 309.222656 165.335938 "/>
<path style=" stroke:none;fill-rule:nonzero;fill:rgb(94.901961%,94.901961%,94.901961%);fill-opacity:1;" d="M 289.417969 203.667969 C 285.097656 199.386719 285.898438 179.875 285.898438 179.875 C 285.898438 179.875 290.199219 114.355469 284.378906 109.964844 C 280.355469 107.058594 276.074219 104.527344 271.589844 102.40625 C 271.332031 102.289062 271.195312 102.226562 271.195312 102.226562 L 267.480469 91.738281 L 244.589844 90.546875 L 240.59375 98.320312 C 240.59375 98.320312 239.964844 98.363281 238.988281 98.5 C 235.328125 99.003906 226.730469 100.792969 227.496094 106.363281 C 228.460938 113.425781 221.648438 156.808594 219.574219 158.980469 C 217.5 161.148438 218.046875 169.078125 223.175781 174.117188 C 228.300781 179.152344 224.613281 192.855469 221.015625 198.621094 C 218.855469 202.152344 217.855469 206.273438 218.164062 210.398438 C 218.164062 210.398438 221.015625 226.011719 228.214844 220.964844 C 230.957031 219.042969 234.855469 218.796875 239.542969 219.148438 C 239.585938 219.152344 239.636719 219.160156 239.683594 219.164062 L 239.542969 219.871094 C 246.050781 220.355469 254.09375 221.988281 262.699219 221.894531 L 262.445312 221.171875 C 262.527344 221.171875 262.613281 221.175781 262.699219 221.175781 C 264.152344 221.160156 265.613281 221.097656 267.097656 220.964844 C 279.929688 219.847656 285.597656 223.382812 287.257812 219.523438 C 288.921875 215.667969 293.738281 207.949219 289.417969 203.667969 Z M 289.417969 203.667969 "/>
<use xlink:href="#surface5" mask="url(#mask0)"/>
<path style=" stroke:none;fill-rule:nonzero;fill:rgb(94.901961%,94.901961%,94.901961%);fill-opacity:1;" d="M 244.777344 102.628906 C 244.777344 102.628906 241.496094 113.539062 237.671875 126.132812 C 236.46875 130.097656 235.207031 134.226562 233.984375 138.242188 C 229.988281 151.296875 226.34375 163.058594 226.007812 163.527344 C 225.242188 164.601562 225.335938 167.5 226.007812 170.878906 C 226.144531 171.554688 225.832031 174.195312 225.25 177.980469 C 224.488281 182.945312 223.257812 189.878906 221.945312 196.957031 C 220.902344 202.613281 219.808594 208.359375 218.863281 213.253906 C 217.386719 220.851562 216.285156 226.394531 216.285156 226.394531 L 202.605469 226.394531 C 202.605469 226.394531 205.175781 168.941406 208.054688 164.796875 C 210.9375 160.644531 208.054688 163.894531 205.894531 161.011719 C 203.734375 158.128906 207.335938 159.570312 210.964844 155.863281 C 214.59375 152.167969 211.65625 153.804688 208.777344 150.921875 C 207.710938 149.855469 210.09375 143.058594 213.519531 134.917969 C 215.121094 131.140625 216.941406 127.070312 218.742188 123.148438 C 222.464844 115.054688 226.113281 107.609375 227.5625 104.667969 C 227.5625 104.660156 227.570312 104.652344 227.570312 104.648438 L 228.21875 103.347656 Z M 244.777344 102.628906 "/>
<path style=" stroke:none;fill-rule:nonzero;fill:rgb(24.705882%,23.921569%,33.72549%);fill-opacity:1;" d="M 274.609375 105.300781 C 259.578125 111.148438 246.058594 112.15625 235.007812 105.300781 L 235.007812 92.328125 C 248.023438 100.144531 261.230469 99.933594 274.609375 92.328125 Z M 274.609375 105.300781 "/>
<path style=" stroke:none;fill-rule:nonzero;fill:rgb(24.705882%,23.921569%,33.72549%);fill-opacity:1;" d="M 286.132812 188.191406 C 262.898438 194.039062 242.007812 195.046875 224.925781 188.191406 L 224.925781 175.21875 C 245.042969 183.035156 265.453125 182.820312 286.132812 175.21875 Z M 286.132812 188.191406 "/>
<path style=" stroke:none;fill-rule:nonzero;fill:rgb(24.705882%,23.921569%,33.72549%);fill-opacity:1;" d="M 290.140625 294.484375 C 290.019531 295.351562 289.839844 298.292969 289.628906 302.574219 C 280.957031 303.980469 272.140625 304.304688 263.382812 303.539062 L 260.71875 290.679688 C 269.691406 292.320312 278.871094 292.4375 287.882812 291.027344 C 289.910156 291.949219 290.71875 290.449219 290.140625 294.484375 Z M 290.140625 294.484375 "/>
<path style=" stroke:none;fill-rule:nonzero;fill:rgb(24.705882%,23.921569%,33.72549%);fill-opacity:1;" d="M 243.75 307.898438 C 236.367188 309.542969 228.863281 310.589844 221.3125 311.027344 L 217.546875 305.441406 L 216.738281 299.175781 C 225.226562 299.398438 233.699219 298.347656 241.875 296.0625 C 241.183594 299.191406 240.695312 301.3125 240.695312 301.3125 Z M 243.75 307.898438 "/>
<path style=" stroke:none;fill-rule:nonzero;fill:rgb(42.352941%,38.823529%,100%);fill-opacity:1;" d="M 245.808594 132.691406 C 245.808594 136.671875 242.585938 139.898438 238.609375 139.898438 C 234.628906 139.898438 231.40625 136.671875 231.40625 132.691406 C 231.40625 128.710938 237.886719 120.4375 238.609375 125.484375 C 239.328125 130.53125 245.808594 128.710938 245.808594 132.691406 Z M 245.808594 132.691406 "/>
<path style=" stroke:none;fill-rule:nonzero;fill:rgb(42.352941%,38.823529%,100%);fill-opacity:1;" d="M 239.390625 120.472656 C 239.132812 120.449219 238.871094 120.441406 238.605469 120.441406 C 232.097656 120.449219 226.730469 125.546875 226.378906 132.054688 C 226.371094 132.261719 226.363281 132.480469 226.363281 132.695312 C 226.363281 132.992188 226.371094 133.277344 226.402344 133.566406 C 226.773438 138.828125 230.46875 143.261719 235.574219 144.566406 C 240.679688 145.875 246.046875 143.757812 248.894531 139.320312 C 249.175781 138.890625 249.425781 138.445312 249.644531 137.984375 C 251.402344 134.316406 251.222656 130.011719 249.167969 126.5 C 247.113281 122.988281 243.449219 120.730469 239.390625 120.472656 Z M 247.84375 139.109375 C 245.558594 141.863281 242.179688 143.46875 238.605469 143.507812 C 233.164062 143.5 228.578125 139.445312 227.890625 134.042969 C 227.832031 133.597656 227.804688 133.144531 227.804688 132.695312 C 227.804688 132.632812 227.804688 132.570312 227.8125 132.507812 C 227.914062 126.613281 232.714844 121.886719 238.605469 121.882812 C 238.671875 122.058594 238.734375 122.222656 238.808594 122.382812 C 241.882812 129.660156 248.550781 129.113281 249.40625 132.695312 C 249.820312 134.425781 249.570312 136.25 248.699219 137.804688 C 248.457031 138.265625 248.167969 138.703125 247.84375 139.109375 Z M 247.84375 139.109375 "/>
<path style=" stroke:none;fill-rule:nonzero;fill:rgb(24.705882%,23.921569%,33.72549%);fill-opacity:1;" d="M 482.660156 0 L 16.339844 0 C 7.320312 0.0117188 0.0117188 7.328125 0 16.355469 L 0 427.644531 C 0.0117188 436.671875 7.320312 443.988281 16.339844 444 L 482.660156 444 C 491.679688 443.988281 498.988281 436.671875 499 427.644531 L 499 16.355469 C 498.988281 7.328125 491.679688 0.0117188 482.660156 0 Z M 497.558594 427.644531 C 497.550781 435.878906 490.886719 442.550781 482.660156 442.558594 L 16.339844 442.558594 C 8.113281 442.550781 1.449219 435.878906 1.441406 427.644531 L 1.441406 16.355469 C 1.449219 8.121094 8.113281 1.449219 16.339844 1.441406 L 482.660156 1.441406 C 490.886719 1.449219 497.550781 8.121094 497.558594 16.355469 Z M 497.558594 427.644531 "/>
</g>
</svg>
