<?xml version="1.0" encoding="UTF-8"?>
<svg xmlns="http://www.w3.org/2000/svg" xmlns:xlink="http://www.w3.org/1999/xlink" width="400px" height="400px" viewBox="0 0 400 339" version="1.1">
<defs>
<filter id="alpha" filterUnits="objectBoundingBox" x="0%" y="0%" width="100%" height="100%">
  <feColorMatrix type="matrix" in="SourceGraphic" values="0 0 0 0 1 0 0 0 0 1 0 0 0 0 1 0 0 0 1 0"/>
</filter>
<mask id="mask0">
  <g filter="url(#alpha)">
<rect x="0" y="0" width="400" height="339" style="fill:rgb(0%,0%,0%);fill-opacity:0.301961;stroke:none;"/>
  </g>
</mask>
<clipPath id="clip1">
  <rect x="0" y="0" width="400" height="339"/>
</clipPath>
<g id="surface5" clip-path="url(#clip1)">
<path style=" stroke:none;fill-rule:nonzero;fill:rgb(94.117647%,94.117647%,94.117647%);fill-opacity:1;" d="M 367.859375 137.6875 C 363.855469 138.867188 355.027344 139.738281 345.316406 140.273438 C 335.613281 140.804688 324.96875 141.035156 314.457031 141.261719 C 296.058594 141.65625 277.660156 142.054688 259.261719 142.457031 C 256.734375 142.511719 254.199219 142.5625 251.652344 142.609375 C 250.378906 141.769531 249.105469 140.917969 247.847656 140.046875 C 250.101562 140.058594 252.359375 140.046875 254.597656 140 C 264.164062 139.8125 272.265625 139.066406 281.488281 138.710938 C 295.6875 138.164062 311.011719 138.597656 325.808594 138.816406 C 340.605469 139.039062 357.464844 138.957031 367.859375 137.6875 Z M 367.859375 137.6875 "/>
</g>
<mask id="mask1">
  <g filter="url(#alpha)">
<rect x="0" y="0" width="400" height="339" style="fill:rgb(0%,0%,0%);fill-opacity:0.301961;stroke:none;"/>
  </g>
</mask>
<clipPath id="clip2">
  <rect x="0" y="0" width="400" height="339"/>
</clipPath>
<g id="surface8" clip-path="url(#clip2)">
<path style=" stroke:none;fill-rule:nonzero;fill:rgb(94.117647%,94.117647%,94.117647%);fill-opacity:1;" d="M 85.472656 273.644531 L 26.824219 224.808594 L 83.800781 275.601562 C 84.101562 276.109375 84.703125 276.363281 85.28125 276.230469 C 85.859375 276.09375 86.28125 275.597656 86.324219 275.007812 C 86.371094 274.414062 86.023438 273.863281 85.472656 273.644531 Z M 85.472656 273.644531 "/>
</g>
<mask id="mask2">
  <g filter="url(#alpha)">
<rect x="0" y="0" width="400" height="339" style="fill:rgb(0%,0%,0%);fill-opacity:0.101961;stroke:none;"/>
  </g>
</mask>
<clipPath id="clip3">
  <rect x="0" y="0" width="400" height="339"/>
</clipPath>
<g id="surface11" clip-path="url(#clip3)">
<path style=" stroke:none;fill-rule:nonzero;fill:rgb(0%,0%,0%);fill-opacity:1;" d="M 195.40625 116.199219 L 197.917969 118.082031 L 199.171875 109.292969 Z M 195.40625 116.199219 "/>
</g>
<mask id="mask3">
  <g filter="url(#alpha)">
<rect x="0" y="0" width="400" height="339" style="fill:rgb(0%,0%,0%);fill-opacity:0.101961;stroke:none;"/>
  </g>
</mask>
<clipPath id="clip4">
  <rect x="0" y="0" width="400" height="339"/>
</clipPath>
<g id="surface14" clip-path="url(#clip4)">
<path style=" stroke:none;fill-rule:nonzero;fill:rgb(0%,0%,0%);fill-opacity:1;" d="M 142.960938 108.6875 L 143.535156 116.460938 L 161.757812 126.023438 L 145.550781 115.15625 Z M 142.960938 108.6875 "/>
</g>
<mask id="mask4">
  <g filter="url(#alpha)">
<rect x="0" y="0" width="400" height="339" style="fill:rgb(0%,0%,0%);fill-opacity:0.101961;stroke:none;"/>
  </g>
</mask>
<clipPath id="clip5">
  <rect x="0" y="0" width="400" height="339"/>
</clipPath>
<g id="surface17" clip-path="url(#clip5)">
<path style=" stroke:none;fill-rule:nonzero;fill:rgb(0%,0%,0%);fill-opacity:1;" d="M 142.617188 132.152344 L 163.675781 141.464844 L 142.03125 137.238281 Z M 142.617188 132.152344 "/>
</g>
</defs>
<g id="surface1">
<path style=" stroke:none;fill-rule:nonzero;fill:rgb(24.705882%,23.921569%,33.72549%);fill-opacity:1;" d="M 385.847656 141.921875 C 365.851562 167.480469 328.121094 173.332031 296.902344 164.429688 C 286.6875 161.445312 276.832031 157.347656 267.519531 152.203125 C 262.105469 149.265625 256.824219 146.042969 251.652344 142.609375 C 250.378906 141.769531 249.105469 140.917969 247.847656 140.046875 C 246.988281 139.457031 246.132812 138.863281 245.277344 138.265625 C 234.59375 130.75 224.328125 122.507812 214.238281 114.3125 C 189.042969 93.855469 163.15625 72.769531 132.199219 63.011719 C 125.820312 61 117.570312 60.0625 113.628906 65.460938 C 110.207031 70.148438 112.292969 76.785156 115.191406 81.816406 C 125.929688 100.441406 145.425781 112.203125 164.9375 121.25 C 184.449219 130.292969 205.117188 137.621094 222.082031 150.84375 C 239.042969 164.070312 251.992188 185.085938 248.523438 206.300781 C 245.53125 224.582031 230.597656 239.4375 213.234375 245.910156 C 195.871094 252.382812 176.507812 251.480469 158.457031 247.277344 C 140.40625 243.074219 123.273438 235.738281 105.851562 229.414062 C 95.351562 225.597656 81.621094 222.957031 74.652344 231.691406 C 68.765625 239.070312 72.148438 250.710938 79.316406 256.851562 C 86.480469 262.996094 96.183594 265.050781 105.4375 266.898438 C 134.175781 272.632812 162.914062 278.371094 191.652344 284.101562 C 200.46875 285.859375 209.488281 287.695312 217.171875 292.371094 C 224.851562 297.042969 231.046875 305.203125 230.828125 314.1875 C 230.605469 323.039062 224.121094 330.863281 216.171875 334.785156 C 208.230469 338.699219 199.054688 339.304688 190.207031 338.882812 C 157.042969 337.292969 61.960938 284.628906 39.15625 277.898438 C 24.5 273.574219 8.480469 267.226562 2.300781 253.261719 C -5.394531 235.875 7.269531 214.839844 24.550781 206.902344 C 41.828125 198.957031 61.855469 200.714844 80.6875 203.390625 C 99.519531 206.0625 118.96875 209.464844 137.300781 204.386719 C 155.628906 199.304688 172.425781 182.742188 170.617188 163.816406 C 169.039062 147.351562 154.203125 134.941406 138.585938 129.472656 C 126.363281 125.191406 113.355469 124.027344 100.515625 122.097656 C 96.949219 121.566406 93.398438 120.972656 89.882812 120.238281 C 80.875 118.355469 72.089844 115.535156 63.667969 111.828125 C 54.832031 107.949219 46.433594 103.132812 38.625 97.464844 C 32.394531 92.949219 26.574219 87.894531 21.226562 82.363281 C 20.410156 81.519531 19.605469 80.652344 18.804688 79.769531 C 18.046875 78.925781 17.296875 78.0625 16.5625 77.183594 C 7.015625 65.785156 -0.0351562 51.746094 2.082031 37.28125 C 4.191406 22.851562 15.441406 10.839844 28.835938 5.070312 C 36.574219 1.738281 44.925781 0.246094 53.378906 0.0273438 C 59.558594 -0.09375 65.738281 0.351562 71.835938 1.355469 C 100.0625 5.867188 125.925781 19.574219 150.351562 34.414062 C 174.777344 49.257812 198.578125 65.546875 225.128906 76.125 C 251.675781 86.710938 281.898438 91.191406 308.835938 81.621094 C 335.769531 72.054688 357.894531 45.953125 356.578125 17.414062 C 374.445312 32.789062 389.625 52.117188 396.347656 74.699219 C 403.070312 97.28125 400.367188 123.359375 385.847656 141.921875 Z M 385.847656 141.921875 "/>
<path style=" stroke:none;fill-rule:nonzero;fill:rgb(42.352941%,38.823529%,100%);fill-opacity:1;" d="M 260.277344 109.289062 C 260.277344 111.023438 258.871094 112.425781 257.136719 112.425781 C 255.402344 112.425781 253.996094 111.023438 253.996094 109.289062 C 253.996094 107.554688 255.402344 106.148438 257.136719 106.148438 C 258.871094 106.148438 260.277344 107.554688 260.277344 109.289062 Z M 260.277344 109.289062 "/>
<path style=" stroke:none;fill-rule:nonzero;fill:rgb(100%,39.607843%,51.764706%);fill-opacity:1;" d="M 372.886719 67.882812 C 372.886719 70.5625 370.710938 72.738281 368.03125 72.738281 C 365.347656 72.738281 363.175781 70.5625 363.175781 67.882812 C 363.175781 65.203125 365.347656 63.03125 368.03125 63.03125 C 370.710938 63.03125 372.886719 65.203125 372.886719 67.882812 Z M 372.886719 67.882812 "/>
<path style=" stroke:none;fill-rule:nonzero;fill:rgb(100%,39.607843%,51.764706%);fill-opacity:1;" d="M 51.378906 220.5625 C 51.378906 221.554688 50.574219 222.355469 49.582031 222.355469 C 48.59375 222.355469 47.789062 221.554688 47.789062 220.5625 C 47.789062 219.574219 48.59375 218.769531 49.582031 218.769531 C 50.574219 218.769531 51.378906 219.574219 51.378906 220.5625 Z M 51.378906 220.5625 "/>
<path style=" stroke:none;fill-rule:nonzero;fill:rgb(100%,39.607843%,51.764706%);fill-opacity:1;" d="M 101.074219 117.484375 C 101.078125 119.039062 100.886719 120.589844 100.515625 122.097656 C 96.949219 121.566406 93.398438 120.972656 89.882812 120.238281 C 80.875 118.355469 72.089844 115.535156 63.667969 111.828125 C 66.46875 102.796875 75.449219 97.164062 84.804688 98.578125 C 94.160156 99.992188 101.074219 108.027344 101.074219 117.484375 Z M 101.074219 117.484375 "/>
<path style=" stroke:none;fill-rule:nonzero;fill:rgb(94.117647%,94.117647%,94.117647%);fill-opacity:1;" d="M 338.796875 99.367188 C 338.796875 100.382812 337.976562 101.203125 336.960938 101.203125 C 335.949219 101.203125 335.128906 100.382812 335.128906 99.367188 C 335.128906 98.355469 335.949219 97.535156 336.960938 97.535156 C 337.976562 97.535156 338.796875 98.355469 338.796875 99.367188 Z M 338.796875 99.367188 "/>
<path style=" stroke:none;fill-rule:nonzero;fill:rgb(94.117647%,94.117647%,94.117647%);fill-opacity:1;" d="M 170.945312 301.214844 C 170.945312 302.226562 170.121094 303.050781 169.109375 303.050781 C 168.097656 303.050781 167.273438 302.226562 167.273438 301.214844 C 167.273438 300.203125 168.097656 299.382812 169.109375 299.382812 C 170.121094 299.382812 170.945312 300.203125 170.945312 301.214844 Z M 170.945312 301.214844 "/>
<path style=" stroke:none;fill-rule:nonzero;fill:rgb(94.117647%,94.117647%,94.117647%);fill-opacity:1;" d="M 197.265625 326.664062 C 197.265625 327.675781 196.445312 328.496094 195.429688 328.496094 C 194.417969 328.496094 193.597656 327.675781 193.597656 326.664062 C 193.597656 325.648438 194.417969 324.828125 195.429688 324.828125 C 196.445312 324.828125 197.265625 325.648438 197.265625 326.664062 Z M 197.265625 326.664062 "/>
<path style=" stroke:none;fill-rule:nonzero;fill:rgb(94.117647%,94.117647%,94.117647%);fill-opacity:1;" d="M 34.589844 254.203125 C 34.589844 255.21875 33.769531 256.039062 32.753906 256.039062 C 31.742188 256.039062 30.921875 255.21875 30.921875 254.203125 C 30.921875 253.191406 31.742188 252.371094 32.753906 252.371094 C 33.769531 252.371094 34.589844 253.191406 34.589844 254.203125 Z M 34.589844 254.203125 "/>
<path style=" stroke:none;fill-rule:nonzero;fill:rgb(94.117647%,94.117647%,94.117647%);fill-opacity:1;" d="M 124.773438 220.132812 C 124.773438 221.144531 123.953125 221.964844 122.9375 221.964844 C 121.925781 221.964844 121.105469 221.144531 121.105469 220.132812 C 121.105469 219.117188 121.925781 218.296875 122.9375 218.296875 C 123.953125 218.296875 124.773438 219.117188 124.773438 220.132812 Z M 124.773438 220.132812 "/>
<path style=" stroke:none;fill-rule:nonzero;fill:rgb(94.117647%,94.117647%,94.117647%);fill-opacity:1;" d="M 115.710938 38.125 C 115.710938 39.136719 114.890625 39.957031 113.878906 39.957031 C 112.863281 39.957031 112.042969 39.136719 112.042969 38.125 C 112.042969 37.109375 112.863281 36.289062 113.878906 36.289062 C 114.890625 36.289062 115.710938 37.109375 115.710938 38.125 Z M 115.710938 38.125 "/>
<path style=" stroke:none;fill-rule:nonzero;fill:rgb(94.117647%,94.117647%,94.117647%);fill-opacity:1;" d="M 226.605469 181.746094 C 226.605469 182.757812 225.785156 183.578125 224.773438 183.578125 C 223.757812 183.578125 222.9375 182.757812 222.9375 181.746094 C 222.9375 180.734375 223.757812 179.914062 224.773438 179.914062 C 225.785156 179.914062 226.605469 180.734375 226.605469 181.746094 Z M 226.605469 181.746094 "/>
<path style=" stroke:none;fill-rule:nonzero;fill:rgb(94.117647%,94.117647%,94.117647%);fill-opacity:1;" d="M 240.414062 213.664062 C 240.414062 214.675781 239.59375 215.496094 238.582031 215.496094 C 237.566406 215.496094 236.746094 214.675781 236.746094 213.664062 C 236.746094 212.648438 237.566406 211.828125 238.582031 211.828125 C 239.59375 211.828125 240.414062 212.648438 240.414062 213.664062 Z M 240.414062 213.664062 "/>
<path style=" stroke:none;fill-rule:nonzero;fill:rgb(42.352941%,38.823529%,100%);fill-opacity:1;" d="M 73.199219 43.976562 C 73.214844 53.238281 71.023438 62.367188 66.816406 70.613281 C 66.257812 71.703125 65.667969 72.769531 65.046875 73.820312 C 58.878906 84.226562 49.652344 92.484375 38.625 97.464844 C 32.394531 92.949219 26.574219 87.894531 21.226562 82.363281 C 20.410156 81.519531 19.605469 80.652344 18.804688 79.769531 C 18.046875 78.925781 17.296875 78.0625 16.5625 77.183594 C 7.015625 65.785156 -0.0351562 51.746094 2.082031 37.28125 C 4.191406 22.851562 15.441406 10.839844 28.835938 5.070312 C 36.574219 1.738281 44.925781 0.246094 53.378906 0.0273438 C 59.988281 5.863281 65.199219 13.109375 68.621094 21.230469 C 69.054688 22.253906 69.449219 23.289062 69.828125 24.335938 C 72.066406 30.644531 73.207031 37.285156 73.199219 43.976562 Z M 73.199219 43.976562 "/>
<path style=" stroke:none;fill-rule:nonzero;fill:rgb(89.411765%,89.411765%,89.411765%);fill-opacity:1;" d="M 99.953125 46.996094 C 99.953125 55.980469 91.175781 64.3125 75.238281 70.46875 C 72.046875 71.703125 68.636719 72.820312 65.046875 73.820312 C 51.609375 77.5625 35.617188 79.636719 18.804688 79.769531 C 18.046875 78.925781 17.296875 78.0625 16.5625 77.183594 C 16.742188 77.1875 16.925781 77.1875 17.105469 77.1875 C 35.363281 77.1875 52.683594 74.875 66.816406 70.613281 C 69.425781 69.824219 71.929688 68.972656 74.304688 68.054688 C 88.960938 62.398438 97.363281 54.722656 97.363281 46.996094 C 97.363281 39.273438 88.960938 31.597656 74.304688 25.941406 C 72.855469 25.378906 71.363281 24.84375 69.828125 24.335938 C 69.449219 23.289062 69.054688 22.253906 68.621094 21.230469 C 70.917969 21.945312 73.125 22.710938 75.238281 23.527344 C 91.175781 29.679688 99.953125 38.015625 99.953125 46.996094 Z M 99.953125 46.996094 "/>
<path style=" stroke:none;fill-rule:nonzero;fill:rgb(94.117647%,94.117647%,94.117647%);fill-opacity:1;" d="M 21.644531 13.109375 C 21.644531 14.121094 20.824219 14.941406 19.808594 14.941406 C 18.796875 14.941406 17.976562 14.121094 17.976562 13.109375 C 17.976562 12.097656 18.796875 11.273438 19.808594 11.273438 C 20.824219 11.273438 21.644531 12.097656 21.644531 13.109375 Z M 21.644531 13.109375 "/>
<path style=" stroke:none;fill-rule:nonzero;fill:rgb(94.117647%,94.117647%,94.117647%);fill-opacity:1;" d="M 60.046875 24.753906 C 60.046875 25.765625 59.226562 26.585938 58.214844 26.585938 C 57.199219 26.585938 56.378906 25.765625 56.378906 24.753906 C 56.378906 23.742188 57.199219 22.921875 58.214844 22.921875 C 59.226562 22.921875 60.046875 23.742188 60.046875 24.753906 Z M 60.046875 24.753906 "/>
<path style=" stroke:none;fill-rule:nonzero;fill:rgb(94.117647%,94.117647%,94.117647%);fill-opacity:1;" d="M 56.207031 43.300781 C 56.207031 53.148438 48.21875 61.132812 38.363281 61.132812 C 28.511719 61.132812 20.523438 53.148438 20.523438 43.300781 C 20.523438 33.449219 28.511719 25.464844 38.363281 25.464844 C 48.21875 25.464844 56.207031 33.449219 56.207031 43.300781 Z M 56.207031 43.300781 "/>
<use xlink:href="#surface5" mask="url(#mask0)"/>
<use xlink:href="#surface8" mask="url(#mask1)"/>
<path style=" stroke:none;fill-rule:nonzero;fill:rgb(94.117647%,94.117647%,94.117647%);fill-opacity:1;" d="M 42.789062 86.859375 C 42.789062 87.875 41.96875 88.695312 40.953125 88.695312 C 39.941406 88.695312 39.121094 87.875 39.121094 86.859375 C 39.121094 85.847656 39.941406 85.027344 40.953125 85.027344 C 41.96875 85.027344 42.789062 85.847656 42.789062 86.859375 Z M 42.789062 86.859375 "/>
<path style=" stroke:none;fill-rule:nonzero;fill:rgb(100%,71.372549%,71.372549%);fill-opacity:1;" d="M 195.046875 299.351562 L 202.632812 299.351562 L 206.246094 270.09375 L 195.042969 270.09375 Z M 195.046875 299.351562 "/>
<path style=" stroke:none;fill-rule:nonzero;fill:rgb(18.431373%,18.039216%,25.490196%);fill-opacity:1;" d="M 193.109375 296.875 L 195.246094 296.875 L 203.585938 293.484375 L 208.054688 296.875 C 213.316406 296.875 217.578125 301.136719 217.578125 306.394531 L 217.578125 306.703125 L 193.109375 306.707031 Z M 193.109375 296.875 "/>
<path style=" stroke:none;fill-rule:nonzero;fill:rgb(100%,71.372549%,71.372549%);fill-opacity:1;" d="M 138.210938 299.351562 L 130.625 299.351562 L 127.011719 270.09375 L 138.214844 270.09375 Z M 138.210938 299.351562 "/>
<path style=" stroke:none;fill-rule:nonzero;fill:rgb(18.431373%,18.039216%,25.490196%);fill-opacity:1;" d="M 140.148438 306.707031 L 115.679688 306.703125 L 115.679688 306.394531 C 115.679688 301.136719 119.941406 296.875 125.203125 296.875 L 129.671875 293.484375 L 138.011719 296.875 L 140.148438 296.875 Z M 140.148438 306.707031 "/>
<path style=" stroke:none;fill-rule:nonzero;fill:rgb(42.352941%,38.823529%,100%);fill-opacity:1;" d="M 165.40625 75.125 L 157.71875 80.976562 L 137.308594 86.378906 C 137.308594 86.378906 144.621094 137.6875 141.171875 141.136719 C 137.71875 144.585938 140.832031 144.679688 140.136719 149.160156 C 139.445312 153.644531 136.679688 165.476562 136.679688 165.476562 L 197.601562 165.476562 C 197.601562 165.476562 198.09375 158.125 195.089844 156.53125 C 192.085938 154.9375 197.859375 147.503906 195.40625 146.261719 C 192.949219 145.019531 196.402344 134.234375 196.402344 134.234375 L 203.882812 98.933594 L 183.984375 83.371094 L 180.960938 76.085938 Z M 165.40625 75.125 "/>
<path style=" stroke:none;fill-rule:nonzero;fill:rgb(94.901961%,94.901961%,94.901961%);fill-opacity:1;" d="M 177.652344 118.316406 C 177.652344 119.785156 176.460938 120.972656 174.992188 120.972656 C 173.523438 120.972656 172.332031 119.785156 172.332031 118.316406 C 172.332031 116.847656 173.523438 115.660156 174.992188 115.660156 C 176.460938 115.660156 177.652344 116.847656 177.652344 118.316406 Z M 177.652344 118.316406 "/>
<path style=" stroke:none;fill-rule:nonzero;fill:rgb(18.431373%,18.039216%,25.490196%);fill-opacity:1;" d="M 136.679688 165.476562 L 134.167969 230.136719 C 134.167969 230.136719 123.320312 277.894531 125.203125 279.152344 C 127.089844 280.40625 127.886719 287.894531 127.886719 287.894531 L 138.566406 289.148438 C 138.566406 289.148438 138.566406 284.125 141.078125 282.242188 C 143.589844 280.359375 166.828125 191.84375 166.828125 191.84375 L 189.5 277.425781 C 189.5 277.425781 190.066406 282.242188 191.949219 282.242188 C 193.835938 282.242188 194.460938 289.148438 194.460938 289.148438 L 205.140625 289.148438 L 205.140625 282.242188 C 205.140625 282.242188 209.9375 280.722656 208.054688 275.699219 C 206.167969 270.679688 197.601562 165.476562 197.601562 165.476562 Z M 136.679688 165.476562 "/>
<path style=" stroke:none;fill-rule:nonzero;fill:rgb(100%,71.372549%,71.372549%);fill-opacity:1;" d="M 186.257812 58.402344 C 186.257812 65.511719 180.496094 71.273438 173.382812 71.273438 C 166.273438 71.273438 160.507812 65.511719 160.507812 58.402344 C 160.507812 51.296875 166.273438 45.535156 173.382812 45.535156 C 180.496094 45.535156 186.257812 51.296875 186.257812 58.402344 Z M 186.257812 58.402344 "/>
<use xlink:href="#surface11" mask="url(#mask2)"/>
<path style=" stroke:none;fill-rule:nonzero;fill:rgb(42.352941%,38.823529%,100%);fill-opacity:1;" d="M 138.511719 86.328125 C 138.511719 86.328125 135.371094 85.699219 133.488281 91.351562 C 131.605469 97 124.695312 118.34375 124.695312 122.113281 C 124.695312 125.878906 167.71875 142.496094 167.71875 142.496094 L 163.242188 126.800781 L 143.535156 116.460938 Z M 138.511719 86.328125 "/>
<path style=" stroke:none;fill-rule:nonzero;fill:rgb(100%,71.372549%,71.372549%);fill-opacity:1;" d="M 177.050781 132.839844 C 177.050781 136.886719 173.765625 140.171875 169.714844 140.171875 C 165.664062 140.171875 162.378906 136.886719 162.378906 132.839844 C 162.378906 128.789062 165.664062 125.507812 169.714844 125.507812 C 173.765625 125.507812 177.050781 128.789062 177.050781 132.839844 Z M 177.050781 132.839844 "/>
<use xlink:href="#surface14" mask="url(#mask3)"/>
<path style=" stroke:none;fill-rule:nonzero;fill:rgb(94.117647%,94.117647%,94.117647%);fill-opacity:1;" d="M 186.769531 109.792969 L 186.535156 109.792969 L 186.535156 103.320312 C 186.535156 101.253906 184.855469 99.574219 182.785156 99.574219 L 169.066406 99.574219 C 166.996094 99.574219 165.316406 101.253906 165.316406 103.320312 L 165.316406 138.832031 C 165.316406 140.902344 166.996094 142.578125 169.066406 142.578125 L 182.785156 142.578125 C 184.855469 142.578125 186.535156 140.902344 186.535156 138.832031 L 186.535156 114.402344 L 186.769531 114.402344 Z M 186.769531 109.792969 "/>
<path style=" stroke:none;fill-rule:nonzero;fill:rgb(42.352941%,38.823529%,100%);fill-opacity:1;" d="M 203.882812 98.933594 C 203.882812 98.933594 205.769531 100.191406 207.023438 105.839844 C 208.28125 111.488281 216.445312 132.832031 213.304688 137.855469 C 210.164062 142.878906 209.238281 148.238281 198.558594 140.703125 L 183.785156 127.183594 L 194.460938 117.140625 L 198.859375 120.277344 Z M 203.882812 98.933594 "/>
<path style=" stroke:none;fill-rule:nonzero;fill:rgb(42.352941%,38.823529%,100%);fill-opacity:1;" d="M 179.234375 112.261719 C 179.234375 113.996094 177.828125 115.402344 176.09375 115.402344 C 174.359375 115.402344 172.953125 113.996094 172.953125 112.261719 C 172.953125 110.53125 174.359375 109.125 176.09375 109.125 C 177.828125 109.125 179.234375 110.53125 179.234375 112.261719 Z M 179.234375 112.261719 "/>
<path style=" stroke:none;fill-rule:nonzero;fill:rgb(100%,71.372549%,71.372549%);fill-opacity:1;" d="M 192.519531 119.140625 C 192.519531 123.1875 189.234375 126.472656 185.183594 126.472656 C 181.132812 126.472656 177.847656 123.1875 177.847656 119.140625 C 177.847656 115.089844 181.132812 111.808594 185.183594 111.808594 C 189.234375 111.808594 192.519531 115.089844 192.519531 119.140625 Z M 192.519531 119.140625 "/>
<use xlink:href="#surface17" mask="url(#mask4)"/>
<path style=" stroke:none;fill-rule:nonzero;fill:rgb(18.431373%,18.039216%,25.490196%);fill-opacity:1;" d="M 160.394531 60.96875 L 158.625 54.246094 C 158.164062 52.488281 157.699219 50.699219 157.804688 48.886719 C 157.90625 47.078125 158.675781 45.207031 160.203125 44.226562 C 161.730469 43.246094 164.058594 43.476562 165.042969 45.003906 C 165.230469 42.566406 167.445312 40.691406 169.796875 40.03125 C 172.148438 39.367188 174.648438 39.628906 177.089844 39.742188 C 179.53125 39.851562 182.109375 39.773438 184.214844 38.535156 C 184.546875 39.527344 184.132812 40.617188 183.226562 41.140625 C 184.3125 41.4375 185.445312 40.84375 185.8125 39.777344 C 185.832031 41.1875 185.308594 42.554688 184.355469 43.59375 C 186.238281 42.660156 188.523438 43.304688 189.640625 45.089844 C 190.714844 46.953125 190.113281 49.292969 189.484375 51.351562 L 186.253906 61.910156 C 185.765625 60.304688 185.671875 58.609375 185.410156 56.953125 C 185.148438 55.292969 184.683594 53.601562 183.585938 52.328125 C 182.492188 51.058594 180.632812 50.320312 179.078125 50.953125 C 178.203125 51.304688 177.539062 52.023438 176.75 52.542969 C 175.132812 53.601562 173.078125 53.753906 171.15625 53.535156 C 169.238281 53.320312 167.363281 52.773438 165.445312 52.554688 C 164.242188 52.417969 162.902344 52.457031 161.992188 53.257812 C 161.371094 53.902344 160.957031 54.726562 160.8125 55.613281 C 160.382812 57.382812 160.214844 59.207031 160.3125 61.023438 "/>
</g>
</svg>
